<svg xmlns="http://www.w3.org/2000/svg" width="13.03" height="11.06" viewBox="0 0 13.03 11.06">
  <defs>
    <style>
      .cls-1 {
        fill: #fff;
        fill-rule: evenodd;
      }
    </style>
  </defs>
  <path id="Arrow_Icon" data-name="Arrow Icon" class="cls-1" d="M1089.52,1987.36l4.09,4.08a1.45,1.45,0,1,1-2.05,2.05l-4.08-4.09A1.442,1.442,0,0,1,1089.52,1987.36Zm4.09,4.08a1.461,1.461,0,0,1,0,2.05l-4.09,4.08a1.442,1.442,0,0,1-2.04-2.04l4.08-4.09A1.461,1.461,0,0,1,1093.61,1991.44Zm-11.11-.44h10a1.5,1.5,0,0,1,0,3h-10A1.5,1.5,0,0,1,1082.5,1991Z" transform="translate(-1081 -1986.94)"/>
</svg>
