<svg width="10" height="11" viewBox="0 0 10 11" fill="none" xmlns="http://www.w3.org/2000/svg">
<g clip-path="url(#clip0)">
<path fill-rule="evenodd" clip-rule="evenodd" d="M0 9.44708V0.564082C0.00913185 0.456517 0.0457805 0.353114 0.106445 0.263819C0.16711 0.174525 0.249739 0.102342 0.346375 0.0542248C0.44301 0.0061078 0.550386 -0.016334 0.658203 -0.0109303C0.76602 -0.00552657 0.870635 0.0275399 0.961975 0.085078C1.34498 0.278078 9.00599 4.18509 9.66199 4.51809C9.75691 4.55783 9.83795 4.62474 9.89496 4.71041C9.95197 4.79608 9.98242 4.8967 9.98242 4.9996C9.98242 5.1025 9.95197 5.20308 9.89496 5.28875C9.83795 5.37442 9.75691 5.44133 9.66199 5.48107C9.19199 5.72507 1.50201 9.65109 0.945007 9.92309C0.854442 9.9774 0.751589 10.0079 0.646057 10.0118C0.540525 10.0157 0.435745 9.99281 0.341431 9.94531C0.247116 9.8978 0.166324 9.82722 0.106628 9.74011C0.0469325 9.653 0.0102661 9.55218 0 9.44708Z" fill="white"/>
</g>
<defs>
<clipPath id="clip0">
<rect width="10" height="10.031" fill="white"/>
</clipPath>
</defs>
</svg>
